<svg version="1.1" xmlns="http://www.w3.org/2000/svg" viewBox="0 0 699.6589359465195 590.4396868117706" width="1399.317871893039" height="1180.8793736235411"><!-- svg-source:excalidraw --><metadata></metadata><defs><style class="style-fonts">
      </style></defs><g stroke-linecap="round" transform="translate(10 10) rotate(0 339.82946797325974 285.2198434058853)"><path d="M32 0 C252.61 5.61, 474.21 6.99, 647.66 0 C663.56 -4.28, 683.7 7.17, 679.66 32 C679.62 208.18, 678.25 381.39, 679.66 538.44 C681.57 562.55, 672.9 571.57, 647.66 570.44 C427.84 566.69, 211.36 569.27, 32 570.44 C12.3 569.22, -4.08 558.11, 0 538.44 C-5.19 403.99, -6.12 265.21, 0 32 C4.47 13.82, 10.88 -3.06, 32 0" stroke="none" stroke-width="0" fill="#267326"></path><path d="M32 0 C211.7 -4.39, 390.72 -3.12, 647.66 0 M32 0 C206.33 4.92, 382.13 5.33, 647.66 0 M647.66 0 C670.49 0.19, 681.43 9.23, 679.66 32 M647.66 0 C673.47 -4.47, 679.94 8.4, 679.66 32 M679.66 32 C678.79 161.73, 678.53 289.06, 679.66 538.44 M679.66 32 C680.57 229.33, 680.6 427.78, 679.66 538.44 M679.66 538.44 C679.8 563.57, 667.86 568.6, 647.66 570.44 M679.66 538.44 C677.6 562.58, 667.7 566.73, 647.66 570.44 M647.66 570.44 C493.5 567.16, 338.32 566.44, 32 570.44 M647.66 570.44 C483.49 570.34, 318.34 570.99, 32 570.44 M32 570.44 C9.97 572.18, -3.5 559.34, 0 538.44 M32 570.44 C14.35 570.11, 1.08 560.6, 0 538.44 M0 538.44 C3.87 420.14, 3.06 303.42, 0 32 M0 538.44 C-0.1 369.11, -0.18 198.37, 0 32 M0 32 C1.79 6.7, 6.86 3.34, 32 0 M0 32 C-3.91 12.41, 12.8 3.45, 32 0" stroke="#267326" stroke-width="2" fill="none"></path></g><g stroke-linecap="round"><g transform="translate(69.55593738473999 530.4542184058851) rotate(0 262.6719215442598 1.1368683772161603e-13)"><path d="M0 0 C112.09 -0.95, 223.83 -1.64, 525.34 0 M0 0 C179.93 -0.85, 359.45 -0.86, 525.34 0" stroke="#ffffff" stroke-width="2" fill="none"></path></g><g transform="translate(69.55593738473999 530.4542184058851) rotate(0 262.6719215442598 1.1368683772161603e-13)"><path d="M526.08 0.92 L512.26 5.37 L513.46 -7.92 L526.91 0.04" stroke="none" stroke-width="0" fill="#ffffff" fill-rule="evenodd"></path><path d="M525.34 0 C523.17 1.38, 520.38 1.42, 511.73 6.29 M525.34 0 C521.18 1.73, 516.19 3.87, 511.73 6.29 M511.73 6.29 C511.63 1.77, 511.16 -2.44, 511.77 -6.39 M511.73 6.29 C511.81 3.41, 511.15 0.43, 511.77 -6.39 M511.77 -6.39 C515.34 -3.87, 520.11 -3.21, 525.34 0 M511.77 -6.39 C516.09 -4.03, 519.82 -2.05, 525.34 0 M525.34 0 C525.34 0, 525.34 0, 525.34 0 M525.34 0 C525.34 0, 525.34 0, 525.34 0" stroke="#ffffff" stroke-width="2" fill="none"></path></g></g><mask></mask><g stroke-linecap="round"><g transform="translate(95.00134297325985 547.8721871558853) rotate(0 0 -248.35546875)"><path d="M0 0 C-1.06 -100.03, -0.36 -201.52, 0 -496.71 M0 0 C-0.23 -189.76, -0.27 -379.27, 0 -496.71" stroke="#ffffff" stroke-width="2" fill="none"></path></g><g transform="translate(95.00134297325985 547.8721871558853) rotate(0 0 -248.35546875)"><path d="M-1.14 -494.79 L4.39 -482.3 L-7.44 -483.78 L1.17 -497.04" stroke="none" stroke-width="0" fill="#ffffff" fill-rule="evenodd"></path><path d="M0 -496.71 C1.22 -493.34, 3.79 -492.69, 6.32 -483.11 M0 -496.71 C3.08 -491.57, 5.41 -485.91, 6.32 -483.11 M6.32 -483.11 C1.4 -482.74, -4.05 -483.43, -6.36 -483.12 M6.32 -483.11 C4.08 -482.48, 0.07 -482.91, -6.36 -483.12 M-6.36 -483.12 C-4.23 -487.11, -2.15 -490.4, 0 -496.71 M-6.36 -483.12 C-5.03 -486.87, -2.15 -491.84, 0 -496.71 M0 -496.71 C0 -496.71, 0 -496.71, 0 -496.71 M0 -496.71 C0 -496.71, 0 -496.71, 0 -496.71" stroke="#ffffff" stroke-width="2" fill="none"></path></g></g><mask></mask><g transform="translate(155.35290547325974 159.66515590588534) rotate(0 0.00004999999998744897 0.00004999999998744897)" stroke="none"><path fill="#ffffff" d="M 3.14,-3.14 Q 3.14,-3.14 3.55,-2.55 3.97,-1.97 4.18,-1.28 4.40,-0.59 4.38,0.11 4.36,0.83 4.11,1.51 3.86,2.18 3.41,2.74 2.96,3.30 2.36,3.69 1.75,4.08 1.05,4.25 0.36,4.42 -0.35,4.36 -1.07,4.31 -1.73,4.02 -2.39,3.74 -2.92,3.26 -3.46,2.78 -3.81,2.15 -4.16,1.53 -4.30,0.82 -4.43,0.11 -4.34,-0.59 -4.24,-1.30 -3.92,-1.94 -3.60,-2.59 -3.09,-3.09 -2.59,-3.60 -1.94,-3.92 -1.30,-4.24 -0.59,-4.34 0.12,-4.43 0.82,-4.30 1.53,-4.16 2.15,-3.81 2.78,-3.46 3.26,-2.92 3.74,-2.39 4.02,-1.73 4.31,-1.07 4.36,-0.35 4.42,0.36 4.25,1.05 4.07,1.75 3.69,2.36 3.30,2.96 2.74,3.41 2.18,3.86 1.51,4.11 0.83,4.36 0.11,4.38 -0.60,4.40 -1.28,4.18 -1.97,3.97 -2.55,3.55 -3.14,3.13 -3.14,3.14 -3.14,3.14 -3.47,2.71 -3.80,2.29 -4.02,1.80 -4.24,1.32 -4.33,0.79 -4.43,0.26 -4.40,-0.26 -4.36,-0.80 -4.20,-1.31 -4.04,-1.82 -3.77,-2.28 -3.49,-2.73 -3.11,-3.11 -2.73,-3.49 -2.28,-3.77 -1.82,-4.05 -1.31,-4.20 -0.80,-4.36 -0.26,-4.40 0.26,-4.43 0.79,-4.33 1.32,-4.24 1.80,-4.02 2.29,-3.80 2.71,-3.47 3.14,-3.14 3.14,-3.14 L 3.14,-3.14 Z"></path></g><g transform="translate(200.09509297325974 240.24328090588534) rotate(0 0.00004999999998744897 0.00004999999998744897)" stroke="none"><path fill="#ffffff" d="M 3.14,-3.14 Q 3.14,-3.14 3.55,-2.55 3.97,-1.97 4.18,-1.28 4.40,-0.59 4.38,0.11 4.36,0.83 4.11,1.51 3.86,2.18 3.41,2.74 2.96,3.30 2.36,3.69 1.75,4.08 1.05,4.25 0.36,4.42 -0.35,4.36 -1.07,4.31 -1.73,4.02 -2.39,3.74 -2.92,3.26 -3.46,2.78 -3.81,2.15 -4.16,1.53 -4.30,0.82 -4.43,0.11 -4.34,-0.59 -4.24,-1.30 -3.92,-1.94 -3.60,-2.59 -3.09,-3.09 -2.59,-3.60 -1.94,-3.92 -1.30,-4.24 -0.59,-4.34 0.12,-4.43 0.82,-4.30 1.53,-4.16 2.15,-3.81 2.78,-3.46 3.26,-2.92 3.74,-2.39 4.02,-1.73 4.31,-1.07 4.36,-0.35 4.42,0.36 4.25,1.05 4.07,1.75 3.69,2.36 3.30,2.96 2.74,3.41 2.18,3.86 1.51,4.11 0.83,4.36 0.11,4.38 -0.60,4.40 -1.28,4.18 -1.97,3.97 -2.55,3.55 -3.14,3.13 -3.14,3.14 -3.14,3.14 -3.47,2.71 -3.80,2.29 -4.02,1.80 -4.24,1.32 -4.33,0.79 -4.43,0.26 -4.40,-0.26 -4.36,-0.80 -4.20,-1.31 -4.04,-1.82 -3.77,-2.28 -3.49,-2.73 -3.11,-3.11 -2.73,-3.49 -2.28,-3.77 -1.82,-4.05 -1.31,-4.20 -0.80,-4.36 -0.26,-4.40 0.26,-4.43 0.79,-4.33 1.32,-4.24 1.80,-4.02 2.29,-3.80 2.71,-3.47 3.14,-3.14 3.14,-3.14 L 3.14,-3.14 Z"></path></g><g transform="translate(131.43884297325974 259.04796840588534) rotate(0 -0.123046875 0)" stroke="none"><path fill="#ffffff" d="M 4.24,-1.32 Q 4.24,-1.32 4.30,-0.26 4.36,0.80 3.93,1.76 3.49,2.73 2.65,3.39 1.82,4.05 0.77,4.24 -0.26,4.43 -1.28,4.11 -2.29,3.80 -3.04,3.04 -3.80,2.29 -4.11,1.28 -4.43,0.26 -4.24,-0.77 -4.04,-1.82 -3.39,-2.65 -2.73,-3.49 -1.76,-3.93 -0.79,-4.36 0.26,-4.30 1.32,-4.23 2.23,-3.68 3.14,-3.13 3.69,-2.23 L 4.24,-1.32 Z"></path></g><g transform="translate(224.78259297325974 330.87609340588534) rotate(0 0.001953125 -0.18359375)" stroke="none"><path fill="#ffffff" d="M 4.24,-1.32 Q 4.24,-1.32 4.30,-0.26 4.36,0.80 3.93,1.76 3.49,2.73 2.65,3.39 1.82,4.05 0.77,4.24 -0.26,4.43 -1.28,4.11 -2.29,3.80 -3.04,3.04 -3.80,2.29 -4.11,1.28 -4.43,0.26 -4.24,-0.77 -4.04,-1.82 -3.39,-2.65 -2.73,-3.49 -1.76,-3.93 -0.79,-4.36 0.26,-4.30 1.32,-4.23 2.23,-3.68 3.14,-3.13 3.69,-2.23 L 4.24,-1.32 Z"></path></g><g transform="translate(197.24353047325974 353.72765590588534) rotate(0 -0.123046875 0.123046875)" stroke="none"><path fill="#ffffff" d="M 4.24,-1.32 Q 4.24,-1.32 4.30,-0.26 4.36,0.80 3.93,1.76 3.49,2.73 2.65,3.39 1.82,4.05 0.77,4.24 -0.26,4.43 -1.28,4.11 -2.29,3.80 -3.04,3.04 -3.80,2.29 -4.11,1.28 -4.43,0.26 -4.24,-0.77 -4.04,-1.82 -3.39,-2.65 -2.73,-3.49 -1.76,-3.93 -0.79,-4.36 0.26,-4.30 1.32,-4.23 2.23,-3.68 3.14,-3.13 3.69,-2.23 L 4.24,-1.32 Z"></path></g><g transform="translate(159.53259297325974 412.17296840588534) rotate(0 -0.123046875 0.123046875)" stroke="none"><path fill="#ffffff" d="M 4.24,-1.32 Q 4.24,-1.32 4.30,-0.26 4.36,0.80 3.93,1.76 3.49,2.73 2.65,3.39 1.82,4.05 0.77,4.24 -0.26,4.43 -1.28,4.11 -2.29,3.80 -3.04,3.04 -3.80,2.29 -4.11,1.28 -4.43,0.26 -4.24,-0.77 -4.04,-1.82 -3.39,-2.65 -2.73,-3.49 -1.76,-3.93 -0.79,-4.36 0.26,-4.30 1.32,-4.23 2.23,-3.68 3.14,-3.13 3.69,-2.23 L 4.24,-1.32 Z"></path></g><g transform="translate(240.95446797325974 267.24328090588534) rotate(0 0.00004999999998744897 0.00004999999998744897)" stroke="none"><path fill="#ffffff" d="M 3.14,-3.14 Q 3.14,-3.14 3.55,-2.55 3.97,-1.97 4.18,-1.28 4.40,-0.59 4.38,0.11 4.36,0.83 4.11,1.51 3.86,2.18 3.41,2.74 2.96,3.30 2.36,3.69 1.75,4.08 1.05,4.25 0.36,4.42 -0.35,4.36 -1.07,4.31 -1.73,4.02 -2.39,3.74 -2.92,3.26 -3.46,2.78 -3.81,2.15 -4.16,1.53 -4.30,0.82 -4.43,0.11 -4.34,-0.59 -4.24,-1.30 -3.92,-1.94 -3.60,-2.59 -3.09,-3.09 -2.59,-3.60 -1.94,-3.92 -1.30,-4.24 -0.59,-4.34 0.12,-4.43 0.82,-4.30 1.53,-4.16 2.15,-3.81 2.78,-3.46 3.26,-2.92 3.74,-2.39 4.02,-1.73 4.31,-1.07 4.36,-0.35 4.42,0.36 4.25,1.05 4.07,1.75 3.69,2.36 3.30,2.96 2.74,3.41 2.18,3.86 1.51,4.11 0.83,4.36 0.11,4.38 -0.60,4.40 -1.28,4.18 -1.97,3.97 -2.55,3.55 -3.14,3.13 -3.14,3.14 -3.14,3.14 -3.47,2.71 -3.80,2.29 -4.02,1.80 -4.24,1.32 -4.33,0.79 -4.43,0.26 -4.40,-0.26 -4.36,-0.80 -4.20,-1.31 -4.04,-1.82 -3.77,-2.28 -3.49,-2.73 -3.11,-3.11 -2.73,-3.49 -2.28,-3.77 -1.82,-4.05 -1.31,-4.20 -0.80,-4.36 -0.26,-4.40 0.26,-4.43 0.79,-4.33 1.32,-4.24 1.80,-4.02 2.29,-3.80 2.71,-3.47 3.14,-3.14 3.14,-3.14 L 3.14,-3.14 Z"></path></g><g transform="translate(162.36853047325974 294.21203090588534) rotate(0 -0.0390625 0)" stroke="none"><path fill="#ffffff" d="M 4.24,-1.32 Q 4.24,-1.32 4.30,-0.26 4.36,0.80 3.93,1.76 3.49,2.73 2.65,3.39 1.82,4.05 0.77,4.24 -0.26,4.43 -1.28,4.11 -2.29,3.80 -3.04,3.04 -3.80,2.29 -4.11,1.28 -4.43,0.26 -4.24,-0.77 -4.04,-1.82 -3.39,-2.65 -2.73,-3.49 -1.76,-3.93 -0.79,-4.36 0.26,-4.30 1.32,-4.23 2.23,-3.68 3.14,-3.13 3.69,-2.23 L 4.24,-1.32 Z"></path></g><g transform="translate(245.91540547325974 417.07140590588534) rotate(0 0.001953125 0.123046875)" stroke="none"><path fill="#ffffff" d="M 4.24,-1.32 Q 4.24,-1.32 4.30,-0.26 4.36,0.80 3.93,1.76 3.49,2.73 2.65,3.39 1.82,4.05 0.77,4.24 -0.26,4.43 -1.28,4.11 -2.29,3.80 -3.04,3.04 -3.80,2.29 -4.11,1.28 -4.43,0.26 -4.24,-0.77 -4.04,-1.82 -3.39,-2.65 -2.73,-3.49 -1.76,-3.93 -0.79,-4.36 0.26,-4.30 1.32,-4.23 2.23,-3.68 3.14,-3.13 3.69,-2.23 L 4.24,-1.32 Z"></path></g><g transform="translate(313.39196797325974 332.12609340588534) rotate(0 0.00004999999998744897 0.00004999999998744897)" stroke="none"><path fill="#ffffff" d="M 3.14,-3.14 Q 3.14,-3.14 3.55,-2.55 3.97,-1.97 4.18,-1.28 4.40,-0.59 4.38,0.11 4.36,0.83 4.11,1.51 3.86,2.18 3.41,2.74 2.96,3.30 2.36,3.69 1.75,4.08 1.05,4.25 0.36,4.42 -0.35,4.36 -1.07,4.31 -1.73,4.02 -2.39,3.74 -2.92,3.26 -3.46,2.78 -3.81,2.15 -4.16,1.53 -4.30,0.82 -4.43,0.11 -4.34,-0.59 -4.24,-1.30 -3.92,-1.94 -3.60,-2.59 -3.09,-3.09 -2.59,-3.60 -1.94,-3.92 -1.30,-4.24 -0.59,-4.34 0.12,-4.43 0.82,-4.30 1.53,-4.16 2.15,-3.81 2.78,-3.46 3.26,-2.92 3.74,-2.39 4.02,-1.73 4.31,-1.07 4.36,-0.35 4.42,0.36 4.25,1.05 4.07,1.75 3.69,2.36 3.30,2.96 2.74,3.41 2.18,3.86 1.51,4.11 0.83,4.36 0.11,4.38 -0.60,4.40 -1.28,4.18 -1.97,3.97 -2.55,3.55 -3.14,3.13 -3.14,3.14 -3.14,3.14 -3.47,2.71 -3.80,2.29 -4.02,1.80 -4.24,1.32 -4.33,0.79 -4.43,0.26 -4.40,-0.26 -4.36,-0.80 -4.20,-1.31 -4.04,-1.82 -3.77,-2.28 -3.49,-2.73 -3.11,-3.11 -2.73,-3.49 -2.28,-3.77 -1.82,-4.05 -1.31,-4.20 -0.80,-4.36 -0.26,-4.40 0.26,-4.43 0.79,-4.33 1.32,-4.24 1.80,-4.02 2.29,-3.80 2.71,-3.47 3.14,-3.14 3.14,-3.14 L 3.14,-3.14 Z"></path></g><g transform="translate(316.80603047325974 428.95421840588534) rotate(0 0.078125 0.078125)" stroke="none"><path fill="#ffffff" d="M 4.24,-1.32 Q 4.24,-1.32 4.30,-0.26 4.36,0.80 3.93,1.76 3.49,2.73 2.65,3.39 1.82,4.05 0.77,4.24 -0.26,4.43 -1.28,4.11 -2.29,3.80 -3.04,3.04 -3.80,2.29 -4.11,1.28 -4.43,0.26 -4.24,-0.77 -4.04,-1.82 -3.39,-2.65 -2.73,-3.49 -1.76,-3.93 -0.79,-4.36 0.26,-4.30 1.32,-4.23 2.23,-3.68 3.14,-3.13 3.69,-2.23 L 4.24,-1.32 Z"></path></g><g transform="translate(407.7982179732596 401.43078090588534) rotate(0 0.181640625 -0.185546875)" stroke="none"><path fill="#ffffff" d="M 4.24,-1.32 Q 4.24,-1.32 4.30,-0.26 4.36,0.80 3.93,1.76 3.49,2.73 2.65,3.39 1.82,4.05 0.77,4.24 -0.26,4.43 -1.28,4.11 -2.29,3.80 -3.04,3.04 -3.80,2.29 -4.11,1.28 -4.43,0.26 -4.24,-0.77 -4.04,-1.82 -3.39,-2.65 -2.73,-3.49 -1.76,-3.93 -0.79,-4.36 0.26,-4.30 1.32,-4.23 2.23,-3.68 3.14,-3.13 3.69,-2.23 L 4.24,-1.32 Z"></path></g><g transform="translate(464.5482179732596 484.96203090588534) rotate(0 0.080078125 0.080078125)" stroke="none"><path fill="#ffffff" d="M 4.24,-1.32 Q 4.24,-1.32 4.30,-0.26 4.36,0.80 3.93,1.76 3.49,2.73 2.65,3.39 1.82,4.05 0.77,4.24 -0.26,4.43 -1.28,4.11 -2.29,3.80 -3.04,3.04 -3.80,2.29 -4.11,1.28 -4.43,0.26 -4.24,-0.77 -4.04,-1.82 -3.39,-2.65 -2.73,-3.49 -1.76,-3.93 -0.79,-4.36 0.26,-4.30 1.32,-4.23 2.23,-3.68 3.14,-3.13 3.69,-2.23 L 4.24,-1.32 Z"></path></g><g transform="translate(321.71228047325974 390.18078090588534) rotate(0 0.193359375 -0.390625)" stroke="none"><path fill="#ffffff" d="M 4.24,-1.32 Q 4.24,-1.32 4.30,-0.26 4.36,0.80 3.93,1.76 3.49,2.73 2.65,3.39 1.82,4.05 0.77,4.24 -0.26,4.43 -1.28,4.11 -2.29,3.80 -3.04,3.04 -3.80,2.29 -4.11,1.28 -4.43,0.26 -4.24,-0.77 -4.04,-1.82 -3.39,-2.65 -2.73,-3.49 -1.76,-3.93 -0.79,-4.36 0.26,-4.30 1.32,-4.23 2.23,-3.68 3.14,-3.13 3.69,-2.23 L 4.24,-1.32 Z"></path></g><g transform="translate(372.97009297325974 360.25109340588534) rotate(0 0.001953125 -0.099609375)" stroke="none"><path fill="#ffffff" d="M 4.24,-1.32 Q 4.24,-1.32 4.30,-0.26 4.36,0.80 3.93,1.76 3.49,2.73 2.65,3.39 1.82,4.05 0.77,4.24 -0.26,4.43 -1.28,4.11 -2.29,3.80 -3.04,3.04 -3.80,2.29 -4.11,1.28 -4.43,0.26 -4.24,-0.77 -4.04,-1.82 -3.39,-2.65 -2.73,-3.49 -1.76,-3.93 -0.79,-4.36 0.26,-4.30 1.32,-4.23 2.23,-3.68 3.14,-3.13 3.69,-2.23 L 4.24,-1.32 Z"></path></g><g transform="translate(469.7904054732596 358.01671840588534) rotate(0 0.181640625 0)" stroke="none"><path fill="#ffffff" d="M 4.24,-1.32 Q 4.24,-1.32 4.30,-0.26 4.36,0.80 3.93,1.76 3.49,2.73 2.65,3.39 1.82,4.05 0.77,4.24 -0.26,4.43 -1.28,4.11 -2.29,3.80 -3.04,3.04 -3.80,2.29 -4.11,1.28 -4.43,0.26 -4.24,-0.77 -4.04,-1.82 -3.39,-2.65 -2.73,-3.49 -1.76,-3.93 -0.79,-4.36 0.26,-4.30 1.32,-4.23 2.23,-3.68 3.14,-3.13 3.69,-2.23 L 4.24,-1.32 Z"></path></g><g transform="translate(516.9857179732596 394.56359340588534) rotate(0 0.00004999999998744897 0.00004999999998744897)" stroke="none"><path fill="#ffffff" d="M 3.14,-3.14 Q 3.14,-3.14 3.55,-2.55 3.97,-1.97 4.18,-1.28 4.40,-0.59 4.38,0.11 4.36,0.83 4.11,1.51 3.86,2.18 3.41,2.74 2.96,3.30 2.36,3.69 1.75,4.08 1.05,4.25 0.36,4.42 -0.35,4.36 -1.07,4.31 -1.73,4.02 -2.39,3.74 -2.92,3.26 -3.46,2.78 -3.81,2.15 -4.16,1.53 -4.30,0.82 -4.43,0.11 -4.34,-0.59 -4.24,-1.30 -3.92,-1.94 -3.60,-2.59 -3.09,-3.09 -2.59,-3.60 -1.94,-3.92 -1.30,-4.24 -0.59,-4.34 0.12,-4.43 0.82,-4.30 1.53,-4.16 2.15,-3.81 2.78,-3.46 3.26,-2.92 3.74,-2.39 4.02,-1.73 4.31,-1.07 4.36,-0.35 4.42,0.36 4.25,1.05 4.07,1.75 3.69,2.36 3.30,2.96 2.74,3.41 2.18,3.86 1.51,4.11 0.83,4.36 0.11,4.38 -0.60,4.40 -1.28,4.18 -1.97,3.97 -2.55,3.55 -3.14,3.13 -3.14,3.14 -3.14,3.14 -3.47,2.71 -3.80,2.29 -4.02,1.80 -4.24,1.32 -4.33,0.79 -4.43,0.26 -4.40,-0.26 -4.36,-0.80 -4.20,-1.31 -4.04,-1.82 -3.77,-2.28 -3.49,-2.73 -3.11,-3.11 -2.73,-3.49 -2.28,-3.77 -1.82,-4.05 -1.31,-4.20 -0.80,-4.36 -0.26,-4.40 0.26,-4.43 0.79,-4.33 1.32,-4.24 1.80,-4.02 2.29,-3.80 2.71,-3.47 3.14,-3.14 3.14,-3.14 L 3.14,-3.14 Z"></path></g><g transform="translate(585.5794679732596 397.00109340588534) rotate(0 0.080078125 -0.080078125)" stroke="none"><path fill="#ffffff" d="M 4.24,-1.32 Q 4.24,-1.32 4.30,-0.26 4.36,0.80 3.93,1.76 3.49,2.73 2.65,3.39 1.82,4.05 0.77,4.24 -0.26,4.43 -1.28,4.11 -2.29,3.80 -3.04,3.04 -3.80,2.29 -4.11,1.28 -4.43,0.26 -4.24,-0.77 -4.04,-1.82 -3.39,-2.65 -2.73,-3.49 -1.76,-3.93 -0.79,-4.36 0.26,-4.30 1.32,-4.23 2.23,-3.68 3.14,-3.13 3.69,-2.23 L 4.24,-1.32 Z"></path></g><g transform="translate(488.6497804732596 431.03234340588534) rotate(0 -0.390625 -0.197265625)" stroke="none"><path fill="#ffffff" d="M 4.24,-1.32 Q 4.24,-1.32 4.30,-0.26 4.36,0.80 3.93,1.76 3.49,2.73 2.65,3.39 1.82,4.05 0.77,4.24 -0.26,4.43 -1.28,4.11 -2.29,3.80 -3.04,3.04 -3.80,2.29 -4.11,1.28 -4.43,0.26 -4.24,-0.77 -4.04,-1.82 -3.39,-2.65 -2.73,-3.49 -1.76,-3.93 -0.79,-4.36 0.26,-4.30 1.32,-4.23 2.23,-3.68 3.14,-3.13 3.69,-2.23 L 4.24,-1.32 Z"></path></g><g transform="translate(534.2982179732596 439.75109340588534) rotate(0 0.00004999999998744897 0.00004999999998744897)" stroke="none"><path fill="#ffffff" d="M 3.14,-3.14 Q 3.14,-3.14 3.55,-2.55 3.97,-1.97 4.18,-1.28 4.40,-0.59 4.38,0.11 4.36,0.83 4.11,1.51 3.86,2.18 3.41,2.74 2.96,3.30 2.36,3.69 1.75,4.08 1.05,4.25 0.36,4.42 -0.35,4.36 -1.07,4.31 -1.73,4.02 -2.39,3.74 -2.92,3.26 -3.46,2.78 -3.81,2.15 -4.16,1.53 -4.30,0.82 -4.43,0.11 -4.34,-0.59 -4.24,-1.30 -3.92,-1.94 -3.60,-2.59 -3.09,-3.09 -2.59,-3.60 -1.94,-3.92 -1.30,-4.24 -0.59,-4.34 0.12,-4.43 0.82,-4.30 1.53,-4.16 2.15,-3.81 2.78,-3.46 3.26,-2.92 3.74,-2.39 4.02,-1.73 4.31,-1.07 4.36,-0.35 4.42,0.36 4.25,1.05 4.07,1.75 3.69,2.36 3.30,2.96 2.74,3.41 2.18,3.86 1.51,4.11 0.83,4.36 0.11,4.38 -0.60,4.40 -1.28,4.18 -1.97,3.97 -2.55,3.55 -3.14,3.13 -3.14,3.14 -3.14,3.14 -3.47,2.71 -3.80,2.29 -4.02,1.80 -4.24,1.32 -4.33,0.79 -4.43,0.26 -4.40,-0.26 -4.36,-0.80 -4.20,-1.31 -4.04,-1.82 -3.77,-2.28 -3.49,-2.73 -3.11,-3.11 -2.73,-3.49 -2.28,-3.77 -1.82,-4.05 -1.31,-4.20 -0.80,-4.36 -0.26,-4.40 0.26,-4.43 0.79,-4.33 1.32,-4.24 1.80,-4.02 2.29,-3.80 2.71,-3.47 3.14,-3.14 3.14,-3.14 L 3.14,-3.14 Z"></path></g><g transform="translate(338.14196797325974 466.04796840588534) rotate(0 0.001953125 -0.125)" stroke="none"><path fill="#ffffff" d="M 4.24,-1.32 Q 4.24,-1.32 4.30,-0.26 4.36,0.80 3.93,1.76 3.49,2.73 2.65,3.39 1.82,4.05 0.77,4.24 -0.26,4.43 -1.28,4.11 -2.29,3.80 -3.04,3.04 -3.80,2.29 -4.11,1.28 -4.43,0.26 -4.24,-0.77 -4.04,-1.82 -3.39,-2.65 -2.73,-3.49 -1.76,-3.93 -0.79,-4.36 0.26,-4.30 1.32,-4.23 2.23,-3.68 3.14,-3.13 3.69,-2.23 L 4.24,-1.32 Z"></path></g><g transform="translate(144.05603047325974 343.04015590588534) rotate(0 0.001953125 0.18359375)" stroke="none"><path fill="#ffffff" d="M 4.24,-1.32 Q 4.24,-1.32 4.30,-0.26 4.36,0.80 3.93,1.76 3.49,2.73 2.65,3.39 1.82,4.05 0.77,4.24 -0.26,4.43 -1.28,4.11 -2.29,3.80 -3.04,3.04 -3.80,2.29 -4.11,1.28 -4.43,0.26 -4.24,-0.77 -4.04,-1.82 -3.39,-2.65 -2.73,-3.49 -1.76,-3.93 -0.79,-4.36 0.26,-4.30 1.32,-4.23 2.23,-3.68 3.14,-3.13 3.69,-2.23 L 4.24,-1.32 Z"></path></g><g transform="translate(114.38415547325974 164.66515590588534) rotate(0 0 0.12109375)" stroke="none"><path fill="#ffffff" d="M 4.24,-1.32 Q 4.24,-1.32 4.30,-0.26 4.36,0.80 3.93,1.76 3.49,2.73 2.65,3.39 1.82,4.05 0.77,4.24 -0.26,4.43 -1.28,4.11 -2.29,3.80 -3.04,3.04 -3.80,2.29 -4.11,1.28 -4.43,0.26 -4.24,-0.77 -4.04,-1.82 -3.39,-2.65 -2.73,-3.49 -1.76,-3.93 -0.79,-4.36 0.26,-4.30 1.32,-4.23 2.23,-3.68 3.14,-3.13 3.69,-2.23 L 4.24,-1.32 Z"></path></g><g transform="translate(110.39978047325974 372.33703090588534) rotate(0 0.00004999999998744897 0.00004999999998744897)" stroke="none"><path fill="#ffffff" d="M 3.14,-3.14 Q 3.14,-3.14 3.55,-2.55 3.97,-1.97 4.18,-1.28 4.40,-0.59 4.38,0.11 4.36,0.83 4.11,1.51 3.86,2.18 3.41,2.74 2.96,3.30 2.36,3.69 1.75,4.08 1.05,4.25 0.36,4.42 -0.35,4.36 -1.07,4.31 -1.73,4.02 -2.39,3.74 -2.92,3.26 -3.46,2.78 -3.81,2.15 -4.16,1.53 -4.30,0.82 -4.43,0.11 -4.34,-0.59 -4.24,-1.30 -3.92,-1.94 -3.60,-2.59 -3.09,-3.09 -2.59,-3.60 -1.94,-3.92 -1.30,-4.24 -0.59,-4.34 0.12,-4.43 0.82,-4.30 1.53,-4.16 2.15,-3.81 2.78,-3.46 3.26,-2.92 3.74,-2.39 4.02,-1.73 4.31,-1.07 4.36,-0.35 4.42,0.36 4.25,1.05 4.07,1.75 3.69,2.36 3.30,2.96 2.74,3.41 2.18,3.86 1.51,4.11 0.83,4.36 0.11,4.38 -0.60,4.40 -1.28,4.18 -1.97,3.97 -2.55,3.55 -3.14,3.13 -3.14,3.14 -3.14,3.14 -3.47,2.71 -3.80,2.29 -4.02,1.80 -4.24,1.32 -4.33,0.79 -4.43,0.26 -4.40,-0.26 -4.36,-0.80 -4.20,-1.31 -4.04,-1.82 -3.77,-2.28 -3.49,-2.73 -3.11,-3.11 -2.73,-3.49 -2.28,-3.77 -1.82,-4.05 -1.31,-4.20 -0.80,-4.36 -0.26,-4.40 0.26,-4.43 0.79,-4.33 1.32,-4.24 1.80,-4.02 2.29,-3.80 2.71,-3.47 3.14,-3.14 3.14,-3.14 L 3.14,-3.14 Z"></path></g><g stroke-linecap="round"><g transform="translate(103.29040547325974 191.42687465588534) rotate(0 240.48437499999994 131.02734375)"><path d="M-1.04 0.64 C10.71 18.35, 39.69 73.57, 69.73 106.14 C99.77 138.71, 136.52 172.2, 179.21 196.03 C221.9 219.87, 275.55 237.99, 325.86 249.16 C376.16 260.34, 455.11 261.08, 481.02 263.06 M0.62 -0.08 C12.23 17.87, 38.89 75.36, 68.48 107.73 C98.07 140.1, 135.21 170.4, 178.18 194.14 C221.14 217.88, 276.04 239.15, 326.27 250.18 C376.51 261.22, 454.08 258.16, 479.58 260.32" stroke="#ffffff" stroke-width="2" fill="none"></path></g></g><mask></mask><g transform="translate(136.48571797325974 95.20421840588534) rotate(0 0.00004999999998744897 0.00004999999998744897)" stroke="none"><path fill="#ffffff" d="M 3.14,-3.14 Q 3.14,-3.14 3.55,-2.55 3.97,-1.97 4.18,-1.28 4.40,-0.59 4.38,0.11 4.36,0.83 4.11,1.51 3.86,2.18 3.41,2.74 2.96,3.30 2.36,3.69 1.75,4.08 1.05,4.25 0.36,4.42 -0.35,4.36 -1.07,4.31 -1.73,4.02 -2.39,3.74 -2.92,3.26 -3.46,2.78 -3.81,2.15 -4.16,1.53 -4.30,0.82 -4.43,0.11 -4.34,-0.59 -4.24,-1.30 -3.92,-1.94 -3.60,-2.59 -3.09,-3.09 -2.59,-3.60 -1.94,-3.92 -1.30,-4.24 -0.59,-4.34 0.12,-4.43 0.82,-4.30 1.53,-4.16 2.15,-3.81 2.78,-3.46 3.26,-2.92 3.74,-2.39 4.02,-1.73 4.31,-1.07 4.36,-0.35 4.42,0.36 4.25,1.05 4.07,1.75 3.69,2.36 3.30,2.96 2.74,3.41 2.18,3.86 1.51,4.11 0.83,4.36 0.11,4.38 -0.60,4.40 -1.28,4.18 -1.97,3.97 -2.55,3.55 -3.14,3.13 -3.14,3.14 -3.14,3.14 -3.47,2.71 -3.80,2.29 -4.02,1.80 -4.24,1.32 -4.33,0.79 -4.43,0.26 -4.40,-0.26 -4.36,-0.80 -4.20,-1.31 -4.04,-1.82 -3.77,-2.28 -3.49,-2.73 -3.11,-3.11 -2.73,-3.49 -2.28,-3.77 -1.82,-4.05 -1.31,-4.20 -0.80,-4.36 -0.26,-4.40 0.26,-4.43 0.79,-4.33 1.32,-4.24 1.80,-4.02 2.29,-3.80 2.71,-3.47 3.14,-3.14 3.14,-3.14 L 3.14,-3.14 Z"></path></g><g transform="translate(130.14196797325974 428.09484340588534) rotate(0 0.00004999999998744897 0.00004999999998744897)" stroke="none"><path fill="#ffffff" d="M 3.14,-3.14 Q 3.14,-3.14 3.55,-2.55 3.97,-1.97 4.18,-1.28 4.40,-0.59 4.38,0.11 4.36,0.83 4.11,1.51 3.86,2.18 3.41,2.74 2.96,3.30 2.36,3.69 1.75,4.08 1.05,4.25 0.36,4.42 -0.35,4.36 -1.07,4.31 -1.73,4.02 -2.39,3.74 -2.92,3.26 -3.46,2.78 -3.81,2.15 -4.16,1.53 -4.30,0.82 -4.43,0.11 -4.34,-0.59 -4.24,-1.30 -3.92,-1.94 -3.60,-2.59 -3.09,-3.09 -2.59,-3.60 -1.94,-3.92 -1.30,-4.24 -0.59,-4.34 0.12,-4.43 0.82,-4.30 1.53,-4.16 2.15,-3.81 2.78,-3.46 3.26,-2.92 3.74,-2.39 4.02,-1.73 4.31,-1.07 4.36,-0.35 4.42,0.36 4.25,1.05 4.07,1.75 3.69,2.36 3.30,2.96 2.74,3.41 2.18,3.86 1.51,4.11 0.83,4.36 0.11,4.38 -0.60,4.40 -1.28,4.18 -1.97,3.97 -2.55,3.55 -3.14,3.13 -3.14,3.14 -3.14,3.14 -3.47,2.71 -3.80,2.29 -4.02,1.80 -4.24,1.32 -4.33,0.79 -4.43,0.26 -4.40,-0.26 -4.36,-0.80 -4.20,-1.31 -4.04,-1.82 -3.77,-2.28 -3.49,-2.73 -3.11,-3.11 -2.73,-3.49 -2.28,-3.77 -1.82,-4.05 -1.31,-4.20 -0.80,-4.36 -0.26,-4.40 0.26,-4.43 0.79,-4.33 1.32,-4.24 1.80,-4.02 2.29,-3.80 2.71,-3.47 3.14,-3.14 3.14,-3.14 L 3.14,-3.14 Z"></path></g><g transform="translate(194.66540547325974 463.50890590588534) rotate(0 0.00004999999998744897 0.00004999999998744897)" stroke="none"><path fill="#ffffff" d="M 3.14,-3.14 Q 3.14,-3.14 3.55,-2.55 3.97,-1.97 4.18,-1.28 4.40,-0.59 4.38,0.11 4.36,0.83 4.11,1.51 3.86,2.18 3.41,2.74 2.96,3.30 2.36,3.69 1.75,4.08 1.05,4.25 0.36,4.42 -0.35,4.36 -1.07,4.31 -1.73,4.02 -2.39,3.74 -2.92,3.26 -3.46,2.78 -3.81,2.15 -4.16,1.53 -4.30,0.82 -4.43,0.11 -4.34,-0.59 -4.24,-1.30 -3.92,-1.94 -3.60,-2.59 -3.09,-3.09 -2.59,-3.60 -1.94,-3.92 -1.30,-4.24 -0.59,-4.34 0.12,-4.43 0.82,-4.30 1.53,-4.16 2.15,-3.81 2.78,-3.46 3.26,-2.92 3.74,-2.39 4.02,-1.73 4.31,-1.07 4.36,-0.35 4.42,0.36 4.25,1.05 4.07,1.75 3.69,2.36 3.30,2.96 2.74,3.41 2.18,3.86 1.51,4.11 0.83,4.36 0.11,4.38 -0.60,4.40 -1.28,4.18 -1.97,3.97 -2.55,3.55 -3.14,3.13 -3.14,3.14 -3.14,3.14 -3.47,2.71 -3.80,2.29 -4.02,1.80 -4.24,1.32 -4.33,0.79 -4.43,0.26 -4.40,-0.26 -4.36,-0.80 -4.20,-1.31 -4.04,-1.82 -3.77,-2.28 -3.49,-2.73 -3.11,-3.11 -2.73,-3.49 -2.28,-3.77 -1.82,-4.05 -1.31,-4.20 -0.80,-4.36 -0.26,-4.40 0.26,-4.43 0.79,-4.33 1.32,-4.24 1.80,-4.02 2.29,-3.80 2.71,-3.47 3.14,-3.14 3.14,-3.14 L 3.14,-3.14 Z"></path></g></svg>